<svg fill="#FFFFFF" xmlns="http://www.w3.org/2000/svg"  viewBox="0 0 512 512" width="32px" height="32px"><path d="M 236.40039 0 A 32.51 32.51 0 0 0 204.50977 38.769531 L 216.88086 101.66992 L 295.11914 101.66992 L 307.49023 38.769531 A 32.51 32.51 0 0 0 275.59961 0 L 236.40039 0 z M 246 40 L 266 40 A 7.5 7.5 0 0 1 266 55 L 246 55 A 7.5 7.5 0 0 1 246 40 z M 190.65039 46.050781 A 87.14 87.14 0 0 0 168.53906 101.66992 L 201.58984 101.66992 L 190.65039 46.050781 z M 321.34961 46.050781 L 310.41016 101.66992 L 343.41016 101.66992 A 87.14 87.14 0 0 0 321.34961 46.050781 z M 153.5 116.66992 A 12.5 12.5 0 0 0 153.5 141.66992 L 358.5 141.66992 A 12.5 12.5 0 0 0 358.5 116.66992 L 153.5 116.66992 z M 178.5 156.66992 L 178.5 177.91992 A 77.38 77.38 0 0 0 208.5 239.08984 L 208.5 248.58984 L 256 287.78906 L 303.5 248.58984 L 303.5 239.08984 A 77.38 77.38 0 0 0 333.5 177.91992 L 333.5 156.66992 L 178.5 156.66992 z M 235.07227 206.72266 A 7.5 7.5 0 0 1 240.26953 208.91992 A 22.23 22.23 0 0 0 271.73047 208.91992 A 7.5024029 7.5024029 0 0 1 282.33984 219.5293 A 37.25 37.25 0 0 1 229.66016 219.5293 A 7.5 7.5 0 0 1 229.66016 208.90039 L 229.66016 208.91992 A 7.5 7.5 0 0 1 235.07227 206.72266 z M 166 257 A 7.5 7.5 0 0 0 158.5 264.5 L 158.5 512 L 173.5 512 L 173.5 264.5 A 7.5 7.5 0 0 0 166 257 z M 346 257 A 7.5 7.5 0 0 0 338.5 264.5 L 338.5 512 L 353.5 512 L 353.5 264.5 A 7.5 7.5 0 0 0 346 257 z M 201.78906 262.5 L 188.5 268.2793 L 188.5 367 L 323.5 367 L 323.5 268.2793 L 310.21094 262.5 L 304.38086 267.31055 L 309 286.68945 A 22.55 22.55 0 0 1 287.2207 314.42969 A 22.76 22.76 0 0 1 280.11914 313.28906 L 256 305.40039 L 231.88086 313.28906 A 22.76 22.76 0 0 1 224.7793 314.42969 A 22.55 22.55 0 0 1 203 286.68945 L 207.61914 267.31055 L 201.78906 262.5 z M 220.50977 277.91016 L 217.58984 290.14062 A 7.5 7.5 0 0 0 227.2207 299 L 240.71094 294.58984 L 220.50977 277.91016 z M 291.49023 277.93945 L 271.28906 294.61914 L 284.7793 299 A 7.35 7.35 0 0 0 292.18945 297.41992 A 7.34 7.34 0 0 0 294.41016 290.16992 L 291.49023 277.93945 z M 143.5 287.83984 L 122.06055 297.16992 A 47.49 47.49 0 0 0 93.5 340.73047 L 93.5 397 L 143.5 397 L 143.5 287.83984 z M 368.5 287.83984 L 368.5 397 L 418.5 397 L 418.5 340.73047 A 47.48 47.48 0 0 0 389.93945 297.16992 L 368.5 287.83984 z M 256.21875 319.42383 A 7.5 7.5 0 0 1 263.5 326.91992 L 263.5 336.91992 A 7.5 7.5 0 0 1 248.5 336.91992 L 248.5 326.91992 A 7.5 7.5 0 0 1 256.21875 319.42383 z M 188.5 382 L 188.5 512 L 323.5 512 L 323.5 382 L 188.5 382 z M 206 402 L 306 402 A 7.5 7.5 0 0 1 306 417 L 303.5 417 L 303.5 449.5 A 27.54 27.54 0 0 1 276 477 L 236 477 A 27.54 27.54 0 0 1 208.5 449.5 L 208.5 417 L 206 417 A 7.5 7.5 0 0 1 206 402 z M 81 412 A 7.5 7.5 0 0 0 73.5 419.5 A 7.5 7.5 0 0 0 81 427 L 143.5 427 L 143.5 412 L 81 412 z M 368.5 412 L 368.5 427 L 431 427 A 7.5 7.5 0 0 0 431 412 L 368.5 412 z M 223.5 417 L 223.5 449.5 A 12.52 12.52 0 0 0 236 462 L 276 462 A 12.52 12.52 0 0 0 288.5 449.5 L 288.5 417 L 223.5 417 z M 241 432 L 271 432 A 7.5 7.5 0 0 1 271 447 L 241 447 A 7.5 7.5 0 0 1 241 432 z M 93.5 442 L 93.5 512 L 143.5 512 L 143.5 442 L 93.5 442 z M 368.5 442 L 368.5 512 L 418.5 512 L 418.5 442 L 368.5 442 z"/></svg>