<svg xmlns="http://www.w3.org/2000/svg" xmlns:xlink="http://www.w3.org/1999/xlink" viewBox="0,0,256,256" width="50px" height="50px"><g fill="#ffb421" fill-rule="nonzero" stroke="none" stroke-width="1" stroke-linecap="butt" stroke-linejoin="miter" stroke-miterlimit="10" stroke-dasharray="" stroke-dashoffset="0" font-family="none" font-weight="none" font-size="none" text-anchor="none" style="mix-blend-mode: normal"><g transform="scale(5.12,5.12)"><path d="M7,2v46h36v-33.40625l-0.28125,-0.3125l-12,-12l-0.3125,-0.28125zM9,4h20v12h12v30h-32zM31,5.4375l8.5625,8.5625h-8.5625zM14,10v2h13v-2zM14,14v2h13v-2zM14,18v2h23v-2zM14,22v2h23v-2zM14,26v2h23v-2zM20.15625,30.5625c-1.13672,0 -2.0625,0.72656 -2.6875,1.65625c-0.625,0.92969 -1,2.125 -1,3.4375c0,1.10156 0.34375,2.29688 1,3.3125c0.08594,0.13281 0.24219,0.21484 0.34375,0.34375c-0.32422,0.28906 -0.9375,0.90625 -0.9375,0.90625c-0.32031,0.19531 -0.50781,0.55078 -0.48047,0.92578c0.02344,0.375 0.25781,0.70313 0.60547,0.85156c0.34375,0.14844 0.74219,0.08984 1.03125,-0.15234c0,0 0.83984,-0.81641 1.4375,-1.34375c0.36719,0.14453 0.69922,0.375 1.125,0.375c2.52344,0 4.19531,-1.35937 5.15625,-2.59375c0.28125,-0.36328 0.43359,-0.625 0.625,-0.9375c0.07031,0.21484 0.13281,0.41797 0.21875,0.625c0.0625,0.14844 0.13281,0.29688 0.25,0.46875c0.11719,0.17188 0.33984,0.5625 0.96875,0.5625c0.66797,0 1.07813,-0.32031 1.46875,-0.59375c0.39063,-0.27344 0.74219,-0.57812 1.125,-0.875c0.76563,-0.59766 1.53516,-1.0625 2.09375,-1.0625c0.35938,0.00391 0.69531,-0.18359 0.87891,-0.49609c0.17969,-0.3125 0.17969,-0.69531 0,-1.00781c-0.18359,-0.3125 -0.51953,-0.5 -0.87891,-0.49609c-1.40625,0 -2.47266,0.8125 -3.3125,1.46875c-0.35937,0.28125 -0.64844,0.52734 -0.90625,0.71875c-0.03125,-0.09375 -0.05859,-0.14844 -0.09375,-0.25c-0.10937,-0.32031 -0.24609,-0.64453 -0.40625,-0.96875c-0.08203,-0.16406 -0.15234,-0.35156 -0.3125,-0.53125c-0.16016,-0.17969 -0.46484,-0.4375 -0.9375,-0.4375c-0.64844,0 -0.87109,0.39453 -1.03125,0.59375c-0.16016,0.19922 -0.28125,0.37891 -0.40625,0.59375c-0.25391,0.42578 -0.53516,0.92969 -0.90625,1.40625c-0.67187,0.86328 -1.63281,1.57422 -3.15625,1.71875c1.02734,-1.38281 1.9375,-3.10547 1.9375,-5.1875c0,-0.67578 -0.125,-1.41406 -0.59375,-2.03125c-0.46875,-0.61719 -1.30078,-1 -2.21875,-1zM20.15625,32.5625c0.4375,0 0.51953,0.08203 0.625,0.21875c0.10547,0.13672 0.1875,0.43359 0.1875,0.8125c0,1.59375 -0.86719,3.08984 -1.8125,4.28125c-0.41797,-0.64844 -0.6875,-1.55859 -0.6875,-2.21875c0,-0.91797 0.27734,-1.77734 0.65625,-2.34375c0.37891,-0.56641 0.8125,-0.75 1.03125,-0.75z"></path></g></g></svg>