<svg xmlns="http://www.w3.org/2000/svg" xmlns:xlink="http://www.w3.org/1999/xlink" viewBox="0,0,256,256" width="48px" height="48px"><g fill="#000000" fill-rule="nonzero" stroke="none" stroke-width="1" stroke-linecap="butt" stroke-linejoin="miter" stroke-miterlimit="10" stroke-dasharray="" stroke-dashoffset="0" font-family="none" font-weight="none" font-size="none" text-anchor="none" style="mix-blend-mode: normal"><g transform="scale(5.33333,5.33333)"><path d="M10.50977,5c-1.33624,0 -2.51914,0.89168 -2.88477,2.17578l-3.58594,12.54883c-0.08648,0.30204 -0.02601,0.62715 0.1633,0.87789c0.1893,0.25074 0.48542,0.39795 0.7996,0.3975l12.15625,-0.01367c0.32481,-0.00032 0.62924,-0.15836 0.81641,-0.42383l6.02344,-8.56055c0,-0.00065 0,-0.0013 0,-0.00195h0.00195c0.00065,0.00065 0.0013,0.0013 0.00195,0.00195l6.02148,8.56055c0.18756,0.26603 0.49286,0.42415 0.81836,0.42383l11.1582,0.01172v16.00195c0,1.67003 -1.32997,3 -3,3h-10v-9c0,-1.64545 -1.35455,-3 -3,-3h-4c-1.64545,0 -3,1.35455 -3,3v9h-10c-1.67003,0 -3,-1.32997 -3,-3v-13c0.0051,-0.36064 -0.18438,-0.69608 -0.49587,-0.87789c-0.3115,-0.18181 -0.69676,-0.18181 -1.00825,0c-0.3115,0.18181 -0.50097,0.51725 -0.49587,0.87789v13c0,2.74997 2.25003,5 5,5h11c0.55226,-0.00006 0.99994,-0.44774 1,-1v-10c0,-0.55455 0.44545,-1 1,-1h4c0.55455,0 1,0.44545 1,1v10c0.00006,0.55226 0.44774,0.99994 1,1h11c2.74997,0 5,-2.25003 5,-5v-17c-0.00005,-0.5515 -0.44655,-0.99887 -0.99805,-1l-11.64062,-0.01172l-5.72266,-8.13476c-0.80137,-1.14328 -2.47598,-1.14328 -3.27734,0l-5.72461,8.13477l-10.31055,0.00977l3.2207,-11.27344c0.00065,-0.00065 0.0013,-0.0013 0.00195,-0.00195c0.11928,-0.42043 0.51813,-0.72266 0.96094,-0.72266h26.98047c0.44206,0 0.84117,0.30148 0.96094,0.72461c0.00065,0.0013 0.0013,0.00261 0.00195,0.00391l2.38281,8.33594c0.08694,0.35608 0.36169,0.63607 0.71607,0.7297c0.35437,0.09364 0.73158,-0.01408 0.98306,-0.28073c0.25148,-0.26665 0.33695,-0.64951 0.22275,-0.9978l-2.38281,-8.33789c-0.36514,-1.28539 -1.54778,-2.17773 -2.88477,-2.17773zM10,25c-0.55226,0.00006 -0.99994,0.44774 -1,1v9c-0.0051,0.36064 0.18438,0.69608 0.49587,0.87789c0.3115,0.18181 0.69676,0.18181 1.00825,0c0.3115,-0.18181 0.50097,-0.51725 0.49587,-0.87789v-8h4c0.36064,0.0051 0.69608,-0.18438 0.87789,-0.49587c0.18181,-0.3115 0.18181,-0.69676 0,-1.00825c-0.18181,-0.3115 -0.51725,-0.50097 -0.87789,-0.49587zM34,25c-0.55226,0.00006 -0.99994,0.44774 -1,1v9c-0.0051,0.36064 0.18438,0.69608 0.49587,0.87789c0.3115,0.18181 0.69676,0.18181 1.00825,0c0.3115,-0.18181 0.50097,-0.51725 0.49587,-0.87789v-8h4c0.36064,0.0051 0.69608,-0.18438 0.87789,-0.49587c0.18181,-0.3115 0.18181,-0.69676 0,-1.00825c-0.18181,-0.3115 -0.51725,-0.50097 -0.87789,-0.49587z"></path></g></g></svg>