<svg fill="#FFFFFF" xmlns="http://www.w3.org/2000/svg"  viewBox="0 0 48 48" width="48px" height="48px"><path d="M 10.509766 5 C 9.1735265 5 7.990628 5.891684 7.625 7.1757812 L 4.0390625 19.724609 A 1.0001 1.0001 0 0 0 5.0019531 21 L 17.158203 20.986328 A 1.0001 1.0001 0 0 0 17.974609 20.5625 L 23.998047 12.001953 A 1.0001 1.0001 0 0 0 23.998047 12 L 24 12 A 1.0001 1.0001 0 0 0 24.001953 12.001953 L 30.023438 20.5625 A 1.0001 1.0001 0 0 0 30.841797 20.986328 L 42 20.998047 L 42 37 C 42 38.67003 40.67003 40 39 40 L 29 40 L 29 31 C 29 29.354545 27.645455 28 26 28 L 22 28 C 20.354545 28 19 29.354545 19 31 L 19 40 L 9 40 C 7.3299698 40 6 38.67003 6 37 L 6 24 A 1.0001 1.0001 0 1 0 4 24 L 4 37 C 4 39.74997 6.2500302 42 9 42 L 20 42 A 1.0001 1.0001 0 0 0 21 41 L 21 31 C 21 30.445455 21.445455 30 22 30 L 26 30 C 26.554545 30 27 30.445455 27 31 L 27 41 A 1.0001 1.0001 0 0 0 28 42 L 39 42 C 41.74997 42 44 39.74997 44 37 L 44 20 A 1.0001 1.0001 0 0 0 43.001953 19 L 31.361328 18.988281 L 25.638672 10.853516 C 24.837306 9.710233 23.162694 9.710233 22.361328 10.853516 L 16.636719 18.988281 L 6.3261719 18.998047 L 9.546875 7.7246094 A 1.0001 1.0001 0 0 0 9.5488281 7.7226562 C 9.668108 7.3022271 10.066957 7 10.509766 7 L 37.490234 7 C 37.932294 7 38.331408 7.3014756 38.451172 7.7246094 A 1.0001 1.0001 0 0 0 38.453125 7.7285156 L 40.835938 16.064453 A 1.0001 1.0001 0 1 0 42.757812 15.515625 L 40.375 7.1777344 C 40.009859 5.8923444 38.827222 5 37.490234 5 L 10.509766 5 z M 10 25 A 1.0001 1.0001 0 0 0 9 26 L 9 35 A 1.0001 1.0001 0 1 0 11 35 L 11 27 L 15 27 A 1.0001 1.0001 0 1 0 15 25 L 10 25 z M 34 25 A 1.0001 1.0001 0 0 0 33 26 L 33 35 A 1.0001 1.0001 0 1 0 35 35 L 35 27 L 39 27 A 1.0001 1.0001 0 1 0 39 25 L 34 25 z"/></svg>