<svg xmlns="http://www.w3.org/2000/svg" xmlns:xlink="http://www.w3.org/1999/xlink" viewBox="0,0,256,256" width="64px" height="64px"><g fill="#ffb421" fill-rule="nonzero" stroke="none" stroke-width="1" stroke-linecap="butt" stroke-linejoin="miter" stroke-miterlimit="10" stroke-dasharray="" stroke-dashoffset="0" font-family="none" font-weight="none" font-size="none" text-anchor="none" style="mix-blend-mode: normal"><g transform="scale(4,4)"><path d="M21.25195,4.01563c-9.78613,0.40802 -17.44984,8.56596 -17.24628,18.35848c0.20357,9.79252 8.19969,17.62492 17.99432,17.62589c3.73212,-0.01266 7.36824,-1.18376 10.40625,-3.35156l1.61523,1.61523l-0.70703,0.70703c-0.39042,0.39051 -0.39042,1.02356 0,1.41406l18.48633,18.48438c0.72116,0.72625 1.70309,1.13351 2.72656,1.13086c1.02346,0.00259 2.00537,-0.40466 2.72656,-1.13086l1.61523,-1.61523c0.72314,-0.72312 1.1294,-1.7039 1.1294,-2.72656c0,-1.02266 -0.40626,-2.00344 -1.1294,-2.72656l-18.48437,-18.48633c-0.18714,-0.18833 -0.44153,-0.29444 -0.70703,-0.29492c-0.2655,0.00048 -0.51989,0.10659 -0.70703,0.29492l-0.70703,0.70703l-1.60742,-1.60742c2.16657,-3.04111 3.33498,-6.68012 3.34375,-10.41406c-0.00002,-4.90366 -2.00065,-9.59506 -5.53939,-12.98966c-3.53874,-3.39459 -8.30923,-5.19851 -13.20866,-4.99472zM22,6c8.83238,0.01008 15.98992,7.16762 16,16c0,8.83656 -7.16344,16 -16,16c-8.83656,0 -16,-7.16344 -16,-16c0,-8.83656 7.16344,-16 16,-16zM21.41797,8.01172c-7.61583,0.31176 -13.58282,6.6588 -13.42435,14.27936c0.15847,7.62056 6.38417,13.71404 14.00638,13.70892c7.72838,-0.00871 13.99129,-6.27162 14,-14c0.0001,-3.81408 -1.55592,-7.46309 -4.30833,-10.10343c-2.75241,-2.64034 -6.46292,-4.04342 -10.2737,-3.88485zM22,10c6.62442,0.00722 11.99278,5.37558 12,12c0,6.62742 -5.37258,12 -12,12c-6.62742,0 -12,-5.37258 -12,-12c0,-6.62742 5.37258,-12 12,-12zM16,15c-0.55228,0 -1,0.44772 -1,1v12c0,0.55228 0.44772,1 1,1h12c0.55228,0 1,-0.44772 1,-1v-12c0,-0.55228 -0.44772,-1 -1,-1zM17,17h2v3c0,0.55228 0.44772,1 1,1h4c0.55228,0 1,-0.44772 1,-1v-3h2v10h-10zM21,17h2v2h-2zM35.39648,33.98047l1.45313,1.45313l-1.41406,1.41602l-1.45703,-1.45508c0.4985,-0.44471 0.97189,-0.91679 1.41797,-1.41406zM39.67773,35.43555l1.41406,1.41406l-4.24219,4.24219l-1.41406,-1.41406l0.65625,-0.6582c0.0175,-0.01567 0.03443,-0.03196 0.05078,-0.04883l2.82813,-2.83008zM42.50586,38.26367l14.95117,14.95117c0.72457,0.725 0.72457,1.9 0,2.625l-1.61719,1.61719c-0.73518,0.69956 -1.88982,0.69956 -2.625,0l-14.95117,-14.95117z"></path></g></g></svg>