<svg fill="#FFFFFF" xmlns="http://www.w3.org/2000/svg"  viewBox="0 0 64 64" width="64px" height="64px"><path d="M 32.265625 3.953125 C 31.21875 3.953125 30.214844 4.367188 29.460938 5.117188 L 1.480469 33.097656 C -0.078125 34.660156 -0.078125 37.191406 1.480469 38.75 L 22.699219 59.96875 C 23.449219 60.71875 24.460938 61.140625 25.53125 61.140625 C 26.589844 61.140625 27.597656 60.71875 28.347656 59.96875 L 29.847656 58.46875 L 33.949219 62.578125 C 34.640625 63.269531 35.550781 63.609375 36.449219 63.609375 C 37.359375 63.609375 38.257813 63.269531 38.949219 62.578125 L 62.578125 38.949219 C 63.339844 38.1875 63.710938 37.140625 63.589844 36.0625 L 61.8125 19.929688 C 61.628906 18.269531 60.339844 16.992188 58.6875 16.8125 L 56.121094 16.53125 L 55.359375 9.617188 C 55.148438 7.75 53.699219 6.300781 51.828125 6.089844 L 32.71875 3.980469 C 32.570313 3.964844 32.417969 3.953125 32.265625 3.953125 Z M 32.050781 5.960938 C 32.199219 5.945313 32.351563 5.945313 32.5 5.960938 L 51.597656 8.078125 C 52.539063 8.179688 53.269531 8.910156 53.371094 9.851563 L 54.089844 16.300781 L 54.3125 18.328125 L 55.488281 28.949219 C 55.550781 29.550781 55.339844 30.148438 54.910156 30.578125 L 29.847656 55.652344 L 28.429688 57.0625 L 26.9375 58.550781 C 26.179688 59.3125 24.871094 59.3125 24.109375 58.550781 L 2.898438 37.339844 C 2.121094 36.558594 2.121094 35.289063 2.898438 34.511719 L 30.871094 6.539063 C 31.191406 6.214844 31.609375 6.011719 32.050781 5.960938 Z M 47.066406 10.453125 C 46.042969 10.453125 45.019531 10.847656 44.238281 11.625 C 42.679688 13.1875 42.679688 15.722656 44.238281 17.28125 C 45.019531 18.0625 46.042969 18.453125 47.066406 18.453125 C 48.089844 18.453125 49.117188 18.0625 49.894531 17.28125 C 51.453125 15.71875 51.453125 13.183594 49.894531 11.625 C 49.113281 10.847656 48.089844 10.457031 47.066406 10.453125 Z M 47.066406 12.453125 C 47.578125 12.453125 48.089844 12.648438 48.480469 13.039063 C 49.261719 13.816406 49.261719 15.085938 48.480469 15.867188 C 47.703125 16.644531 46.433594 16.644531 45.652344 15.867188 C 44.875 15.085938 44.875 13.816406 45.652344 13.039063 C 46.042969 12.648438 46.554688 12.453125 47.066406 12.453125 Z M 56.347656 18.5625 L 58.46875 18.789063 C 59.179688 18.867188 59.742188 19.429688 59.820313 20.152344 L 61.609375 36.289063 C 61.660156 36.75 61.5 37.210938 61.171875 37.539063 L 37.539063 61.171875 C 36.9375 61.761719 35.96875 61.761719 35.371094 61.171875 L 31.261719 57.0625 L 56.328125 31.988281 C 57.191406 31.128906 57.609375 29.941406 57.46875 28.730469 Z M 40.703125 19.816406 C 40.449219 19.816406 40.191406 19.914063 39.996094 20.109375 L 37.875 22.234375 L 37.167969 21.527344 C 36.226563 20.582031 34.96875 20.0625 33.632813 20.0625 C 32.296875 20.0625 31.039063 20.582031 30.097656 21.527344 L 28.683594 22.9375 C 27.738281 23.882813 27.21875 25.136719 27.21875 26.472656 C 27.21875 27.8125 27.738281 29.066406 28.683594 30.011719 L 30.09375 31.421875 C 30.09375 31.421875 30.097656 31.421875 30.097656 31.421875 C 30.097656 31.421875 30.097656 31.425781 30.097656 31.425781 L 31.511719 32.839844 C 32.078125 33.402344 32.390625 34.15625 32.390625 34.957031 C 32.390625 35.761719 32.078125 36.515625 31.511719 37.078125 L 30.097656 38.496094 C 28.925781 39.664063 27.023438 39.664063 25.855469 38.496094 L 25.144531 37.785156 L 29.390625 33.546875 C 29.78125 33.152344 29.78125 32.523438 29.390625 32.128906 C 28.996094 31.738281 28.367188 31.738281 27.972656 32.128906 L 23.734375 36.375 L 23.027344 35.667969 C 22.460938 35.101563 22.144531 34.347656 22.144531 33.546875 C 22.144531 32.742188 22.457031 31.988281 23.027344 31.421875 C 23.417969 31.035156 23.417969 30.402344 23.027344 30.011719 C 22.632813 29.617188 22.003906 29.617188 21.609375 30.011719 C 20.667969 30.953125 20.144531 32.207031 20.144531 33.546875 C 20.144531 34.882813 20.667969 36.136719 21.609375 37.078125 L 22.316406 37.785156 L 20.199219 39.90625 C 19.804688 40.300781 19.804688 40.929688 20.199219 41.324219 C 20.390625 41.515625 20.648438 41.613281 20.90625 41.613281 C 21.160156 41.613281 21.417969 41.515625 21.609375 41.324219 L 23.734375 39.203125 L 24.4375 39.90625 C 25.414063 40.882813 26.695313 41.371094 27.976563 41.371094 C 29.257813 41.371094 30.539063 40.882813 31.511719 39.90625 L 32.925781 38.496094 C 34.875 36.546875 34.875 33.371094 32.925781 31.421875 L 32.21875 30.71875 L 36.460938 26.472656 C 36.851563 26.082031 36.851563 25.453125 36.460938 25.0625 C 36.070313 24.667969 35.4375 24.667969 35.046875 25.0625 L 30.804688 29.300781 L 30.097656 28.59375 C 29.53125 28.03125 29.21875 27.277344 29.21875 26.472656 C 29.21875 25.671875 29.53125 24.917969 30.097656 24.355469 L 31.511719 22.9375 C 32.644531 21.804688 34.621094 21.804688 35.753906 22.9375 L 38.582031 25.765625 C 39.75 26.9375 39.75 28.839844 38.582031 30.011719 C 38.191406 30.402344 38.191406 31.035156 38.582031 31.421875 C 38.972656 31.816406 39.605469 31.816406 39.996094 31.421875 C 41.945313 29.476563 41.945313 26.300781 39.996094 24.355469 L 39.289063 23.644531 L 41.410156 21.523438 C 41.800781 21.132813 41.800781 20.5 41.410156 20.109375 C 41.214844 19.914063 40.957031 19.816406 40.703125 19.816406 Z M 6.46875 32.839844 C 6.210938 32.839844 5.957031 32.9375 5.761719 33.132813 L 4.347656 34.546875 C 3.957031 34.9375 3.957031 35.570313 4.347656 35.960938 C 4.542969 36.15625 4.796875 36.253906 5.054688 36.253906 C 5.3125 36.253906 5.566406 36.15625 5.761719 35.960938 L 7.175781 34.546875 C 7.566406 34.15625 7.566406 33.523438 7.175781 33.132813 C 6.980469 32.9375 6.726563 32.839844 6.46875 32.839844 Z M 10.003906 36.375 C 9.75 36.375 9.492188 36.472656 9.296875 36.667969 L 7.882813 38.078125 C 7.492188 38.472656 7.492188 39.101563 7.882813 39.496094 C 8.078125 39.6875 8.332031 39.785156 8.589844 39.785156 C 8.847656 39.785156 9.101563 39.6875 9.296875 39.496094 L 10.710938 38.078125 C 11.101563 37.6875 11.101563 37.058594 10.710938 36.667969 C 10.515625 36.472656 10.257813 36.375 10.003906 36.375 Z M 13.539063 39.910156 C 13.285156 39.910156 13.027344 40.007813 12.832031 40.203125 L 11.421875 41.617188 C 11.027344 42.007813 11.027344 42.640625 11.421875 43.03125 C 11.613281 43.226563 11.871094 43.324219 12.125 43.324219 C 12.382813 43.324219 12.636719 43.226563 12.832031 43.03125 L 14.246094 41.617188 C 14.636719 41.226563 14.636719 40.59375 14.246094 40.203125 C 14.050781 40.007813 13.792969 39.910156 13.539063 39.910156 Z M 17.074219 43.445313 C 16.820313 43.445313 16.5625 43.542969 16.367188 43.738281 L 14.953125 45.152344 C 14.5625 45.542969 14.5625 46.175781 14.953125 46.566406 C 15.148438 46.761719 15.402344 46.859375 15.660156 46.859375 C 15.917969 46.859375 16.171875 46.761719 16.367188 46.566406 L 17.78125 45.152344 C 18.171875 44.761719 18.171875 44.128906 17.78125 43.738281 C 17.585938 43.542969 17.328125 43.445313 17.074219 43.445313 Z M 20.609375 46.980469 C 20.355469 46.980469 20.101563 47.078125 19.90625 47.273438 L 18.488281 48.6875 C 18.097656 49.078125 18.097656 49.710938 18.488281 50.101563 C 18.683594 50.296875 18.9375 50.394531 19.195313 50.394531 C 19.453125 50.394531 19.707031 50.296875 19.902344 50.101563 L 21.316406 48.6875 C 21.710938 48.296875 21.710938 47.664063 21.316406 47.273438 C 21.121094 47.078125 20.867188 46.980469 20.609375 46.980469 Z M 24.144531 50.515625 C 23.890625 50.515625 23.636719 50.613281 23.4375 50.8125 L 22.027344 52.222656 C 21.632813 52.617188 21.632813 53.246094 22.027344 53.640625 C 22.21875 53.832031 22.476563 53.933594 22.734375 53.933594 C 22.988281 53.933594 23.246094 53.832031 23.4375 53.640625 L 24.855469 52.222656 C 25.246094 51.832031 25.246094 51.203125 24.855469 50.8125 C 24.65625 50.613281 24.402344 50.515625 24.144531 50.515625 Z M 27.683594 54.050781 C 27.425781 54.050781 27.167969 54.148438 26.972656 54.34375 L 25.5625 55.761719 C 25.167969 56.152344 25.167969 56.78125 25.5625 57.171875 C 25.753906 57.367188 26.011719 57.46875 26.265625 57.46875 C 26.523438 57.46875 26.78125 57.367188 26.972656 57.171875 L 28.390625 55.761719 C 28.78125 55.367188 28.78125 54.738281 28.390625 54.34375 C 28.191406 54.148438 27.9375 54.050781 27.683594 54.050781 Z"/></svg>